<?xml version="1.0" standalone="no"?>
<!DOCTYPE svg PUBLIC "-//W3C//DTD SVG 20010904//EN"
 "http://www.w3.org/TR/2001/REC-SVG-20010904/DTD/svg10.dtd">
<svg version="1.0" xmlns="http://www.w3.org/2000/svg"
 width="980.000000pt" height="734.000000pt" viewBox="0 0 980.000000 734.000000"
 preserveAspectRatio="xMidYMid meet">
<metadata>
Created by potrace 1.15, written by Peter Selinger 2001-2017
</metadata>
<g transform="translate(0.000000,734.000000) scale(0.100000,-0.100000)"
fill="#000000" stroke="none">
<path d="M3070 7333 c-103 -10 -320 -49 -439 -78 -741 -182 -1393 -619 -1868
-1250 -435 -578 -711 -1317 -753 -2012 -41 -692 34 -1210 257 -1773 414 -1045
1226 -1806 2253 -2111 286 -85 559 -116 925 -106 389 11 623 62 970 209 496
211 924 516 1391 990 272 276 474 519 744 893 68 94 124 172 126 174 2 2 17
-25 32 -60 157 -347 762 -1589 814 -1671 88 -136 317 -323 513 -419 178 -86
276 -109 496 -116 204 -7 301 4 433 48 183 61 340 157 469 286 109 109 159
180 227 318 69 141 103 252 127 416 20 137 17 150 -43 161 -48 8 -696 8 -971
-1 l-203 -6 -91 195 c-723 1552 -920 1982 -914 1999 9 30 91 151 205 306 103
139 197 262 1019 1335 541 705 907 1192 950 1264 18 31 31 62 28 70 -5 14
-113 91 -582 420 -276 193 -360 246 -390 246 -24 0 16 50 -916 -1160 -803
-1043 -961 -1245 -973 -1245 -5 0 -52 67 -103 149 -198 314 -506 744 -698 976
-491 589 -982 999 -1510 1260 -361 178 -667 265 -1015 290 -136 9 -431 11
-510 3z m635 -1248 c537 -121 1064 -527 1575 -1215 208 -280 458 -686 618
-1005 108 -216 106 -190 25 -358 -135 -276 -358 -658 -520 -888 -197 -282
-374 -490 -634 -744 -255 -249 -393 -349 -660 -480 -292 -143 -418 -169 -784
-162 -221 4 -248 7 -335 31 -942 262 -1613 1080 -1741 2121 -18 147 -16 465 5
615 101 742 498 1395 1086 1783 216 142 506 261 745 306 156 29 162 29 340 26
130 -2 182 -8 280 -30z"/>
</g>
</svg>
